<?xml version="1.0" encoding="UTF-8"?>
<svg id="Layer_2" data-name="Layer 2" xmlns="http://www.w3.org/2000/svg" xmlns:xlink="http://www.w3.org/1999/xlink" viewBox="0 0 41.3 41.53">
  <defs>
    <style>
      .cls-1 {
        fill: url(#linear-gradient);
      }

      .cls-2 {
        fill: #fff;
      }

      .cls-3 {
        fill: url(#linear-gradient-2);
        fill-rule: evenodd;
      }
    </style>
    <linearGradient id="linear-gradient" x1="20.65" y1="41.32" x2="20.65" y2="0" gradientUnits="userSpaceOnUse">
      <stop offset="0" stop-color="#7bc2e8"/>
      <stop offset="1" stop-color="#1f6ab4"/>
    </linearGradient>
    <linearGradient id="linear-gradient-2" x1="19.96" y1="41.53" x2="19.96" y2="28.87" gradientUnits="userSpaceOnUse">
      <stop offset="0" stop-color="#89a289"/>
      <stop offset="1" stop-color="#006233"/>
    </linearGradient>
  </defs>
  <g id="Layer_1-2" data-name="Layer 1">
    <g>
      <g>
        <path class="cls-1" d="M41.3,20.66c0,11.41-9.25,20.66-20.65,20.66S0,32.07,0,20.66,9.25,0,20.65,0s20.65,9.25,20.65,20.66Z"/>
        <path class="cls-2" d="M11.81,31.11s-.58-3.29,1.06-6.78c0,0,.53-.21-.14-1.06,0,0-3.51-5.29,1.37-7.29,0,0,2.34-.64,7.19-.4-5.02-.38,4.08,.92,3.98-2.4,0,0-1.26-1.42-3.48-3.37,0,0-2.03-1.55-1.06-7.29,0,0,.12,3.4,1.42,2.99,0,0,1.53-.44,.22,.58,0,0-1.01,.09-.12,1.93,0,0,.23,1.04,1.64,1.42l.6-2.14,.33,2.48s2.36,2.96,1.83-.99l.71,1.07,.8-.67,.81,1.48s.8,.08,.52-2.03c0,0-.02-1.59-1.43-1.96,0,0-.63-.9-.39-1.21l.88,.68s1.05-.89-.65-2.77c0,0,1.89-.2,2.41,3.33l-.16,1.37,1.32-1.01-1.88,4.5,.46,2.37s.05,.74-.28,1.07c0,0-.4,.15-.7,3.22,0,0-.52,3.16-2.98,4.28,0,0,.07,.88,.89,1.8,0,0,.49,1.2-.12,2.26,0,0-.58,1.26-.19,2.41,.14,.4,.63,.76,.98,1.09,0,0,.58,1.51-1.46,.99,0,0-1.2-.22-1.01-1.27l-.3-1.92s-.3-.33-1.28,.96c0,0-.84,1.75-1.65,.22,0,0-.22-.34,.19-.91,.71-.98,2.23-2.15,2.13-3.24-.1-.95-1.46-1.89-2.12-1.89-.66-.05-1.32,.3-2.02,.47-.81,.2-1.98,.21-2.65,.43-.44,.26-.78,.86-1.07,1.22-.71,.86-1.05,1.61-.9,2.25,0,0-.09,.49,.23,1.15,.47,.98,1.5,2.37,2.34,3.46,0,0,.22,1.33-1.24,.16l-3.37-4.6-.26,3.68s-1,1.3-1.42-.14Z"/>
      </g>
      <path class="cls-3" d="M7.05,30.35c3.31,2.82,7.79,1.14,8.66,.37,.67,.28,2.11,2.92,4.65,3.24,5.88,.75,7.99-4.81,9.13-5.08,1.01,0,4.7,7.8,7.75,4.08,0,0-5.12,8.36-17.08,8.58-12.27-.23-17.48-10.68-17.48-10.68,0,0,4.41,.74,4.37-.5Z"/>
    </g>
  </g>
</svg>