<svg width="60" height="71" viewBox="0 0 60 71" fill="none" xmlns="http://www.w3.org/2000/svg">
<path d="M47.397 32.698C44.2114 34.0499 41.2249 35.3275 38.2313 36.5828C35.5435 37.7044 32.8556 39.6654 30.1607 39.6728C27.4728 39.6728 24.7708 37.7341 22.09 36.62C19.0822 35.3646 16.0815 34.0796 12.8319 32.698C14.5029 30.5811 16.5224 29.5263 18.8404 29.1846C20.5897 28.9321 22.3745 28.9321 24.145 28.9247C29.0514 28.8949 33.9649 28.8875 38.8713 28.9321C42.0924 28.9618 45.0291 29.8011 47.3899 32.7055L47.397 32.698Z" fill="black"/>
<path d="M8.42327 33.6934C12.9812 35.5727 17.1552 37.2885 21.3221 39.0118C23.4695 39.9031 25.6454 40.7128 27.7288 41.7304C29.3571 42.5252 30.7935 42.4732 32.4574 41.7527C38.2455 39.242 44.0976 36.8725 49.9213 34.4585C50.4546 34.2356 51.0092 34.0722 51.8625 33.7751C51.8625 36.4046 51.9051 38.7815 51.8198 41.151C51.8056 41.5224 51.2581 42.0572 50.8528 42.2058C47.2619 43.5725 45.4344 46.3208 45.2638 50.1908C45.1073 53.7116 47.2903 56.8313 50.7959 58.1757C51.9762 58.6288 51.9051 59.4088 51.8838 60.3298C51.8554 61.5183 52.1753 62.6993 50.5683 63.3233C45.47 65.3065 40.3218 67.2081 35.4083 69.6296C31.7392 71.442 28.5536 71.4642 24.8774 69.6518C20.0208 67.2526 14.9367 65.3437 9.88096 63.4124C8.20995 62.7736 8.48015 61.6 8.40905 60.3373C8.33794 59.1637 8.58681 58.4877 9.82407 58.0346C13.0452 56.8536 14.9438 53.7636 14.9367 50.1388C14.9295 46.6328 13.0168 43.6245 9.83118 42.4286C8.75036 42.0201 8.35216 41.5076 8.40194 40.3191C8.48726 38.2318 8.42327 36.1372 8.42327 33.6637V33.6934Z" fill="black"/>
<path d="M18.0654 12.5313C18.1009 5.58624 23.5619 -0.0589583 30.1962 0.000464867C36.8305 0.059888 42.2844 5.80165 42.2417 12.6799C42.1991 19.5952 36.738 25.1959 30.054 25.1736C23.3771 25.1513 18.0369 19.521 18.0725 12.5313H18.0654Z" fill="black"/>
<path d="M5.86344 40.2819C5.94877 41.1658 6.04121 41.4629 5.99143 41.7377C5.6999 43.461 6.38252 44.1889 8.0322 44.6049C11.424 45.4591 13.1803 48.7422 12.2062 51.9065C11.1751 55.2565 8.00376 56.8015 4.66885 55.5759C-0.273084 53.7635 -1.42502 49.589 1.85301 45.3625C3.06894 43.7953 4.3062 42.2503 5.86344 40.2819Z" fill="black"/>
<path d="M54.7352 40.6831C56.2854 42.6886 58.0844 44.5456 59.2932 46.7516C59.9971 48.0441 60.1465 49.9754 59.862 51.4758C59.3003 54.3875 55.3823 56.5268 52.3603 55.9399C49.4662 55.3754 47.589 52.7385 47.8805 49.5891C48.0938 47.2716 49.2884 45.4741 51.3577 44.9021C53.562 44.293 54.913 43.4537 54.1664 40.6162C54.3584 40.6385 54.5504 40.6533 54.7352 40.6756V40.6831Z" fill="black"/>
</svg>
