<svg width="60" height="61" viewBox="0 0 60 61" fill="none" xmlns="http://www.w3.org/2000/svg">
<path d="M23.5253 21.106C23.5253 18.4735 23.5253 15.9101 23.5253 13.3468C23.5253 8.39284 23.4159 8.73846 27.9839 8.99768C31.0829 9.17049 33.3813 8.38708 35.2995 5.91012C36.6705 4.14169 38.4274 2.67855 40.0115 1.07717C41.4113 -0.33412 41.9643 -0.351401 43.341 1.04261C45.5991 3.32371 47.8744 5.58754 50.0864 7.90897C50.8064 8.66358 51.5553 9.00344 52.6094 8.95736C54.2857 8.88247 55.9677 8.92855 57.644 8.93431C59.4643 8.93431 59.9539 9.38362 59.9654 11.2039C59.9942 14.8905 59.9885 18.5772 59.9942 22.2638C59.9942 26.1405 60.0057 30.023 59.9942 33.8997C59.9885 36.0253 59.4528 36.5553 57.379 36.5553C46.924 36.5553 36.4689 36.5553 26.0081 36.561C24.9539 36.561 23.9458 36.5265 23.5887 35.2765C23.0991 33.5368 23.5369 31.8836 24.6428 31.1866C26.1866 30.2246 27.7246 29.2454 29.2799 28.3064C30.9332 27.3099 31.7684 25.8928 31.8663 23.9458C31.8894 23.4274 32.2984 22.7995 32.7189 22.4424C34.0265 21.3249 35.4493 20.3341 36.7857 19.2454C38.0645 18.2027 38.2776 17.0104 37.4424 16.0196C36.6417 15.0633 35.4032 15.0749 34.1302 16.0714C33.3007 16.7166 32.4769 17.3848 31.6532 18.0357C30.2995 19.1071 29.1417 20.3456 27.0276 19.9942C26.0138 19.8214 24.8272 20.6624 23.5253 21.106ZM36.7108 8.80183H46.2039C46.2788 8.69814 46.3537 8.58869 46.4286 8.485C45.3456 7.38477 44.2684 6.28454 43.1797 5.19007C42.2004 4.20697 41.2116 4.21849 40.2131 5.22464C39.1302 6.31911 38.0587 7.4251 36.7108 8.80183Z" fill="black"/>
<path d="M6.86059 25.5645C3.89976 24.7408 5.95046 22.1141 4.89055 20.7258C4.74654 20.7373 4.57949 20.7373 4.57373 20.7546C4.42972 22.0507 4.40092 23.3641 4.14746 24.6371C3.80184 26.4055 4.98847 26.9758 6.19815 27.6152C7.42511 28.2604 8.65783 28.9055 9.85022 29.6083C11.0541 30.3168 11.417 31.4747 10.864 32.523C10.3111 33.5599 9.1705 33.8825 7.89746 33.2143C5.697 32.0565 3.49654 30.8813 1.394 29.5565C0.748843 29.1475 0.0460776 28.2431 0.0287965 27.5461C-0.0403279 25.0749 -0.0172865 22.5634 0.334096 20.121C0.812207 16.8088 3.99193 15.8122 6.6417 16.106C7.01036 16.1463 7.43663 16.7224 7.62672 17.1486C8.13364 18.2661 8.52534 19.4355 8.95737 20.5876C9.11866 20.5933 9.27995 20.6048 9.44124 20.6106C9.70621 19.1936 9.97119 17.7765 10.2765 16.1751H11.5783C11.8548 17.5288 12.1025 18.7097 12.3329 19.8906C12.5461 21.0081 12.0334 21.7108 10.9332 21.4977C9.14746 21.1521 8.46198 22.2696 7.81681 23.5254C7.47695 24.1878 7.18317 24.879 6.86059 25.5703V25.5645Z" fill="black"/>
<path d="M5.36289 34.0841C7.16589 34.9136 8.71543 35.6221 10.2362 36.3191C10.2362 43.2028 10.2477 49.9942 10.2304 56.78C10.2304 58.7961 9.23386 60.0864 7.78801 60.0749C6.26151 60.0691 5.2016 58.7442 5.19584 56.7051C5.1728 49.6256 5.17856 42.5461 5.18432 35.4724C5.18432 35.1095 5.27649 34.7465 5.36289 34.0841Z" fill="black"/>
<path d="M16.5265 32.3272C16.5553 32.7305 16.6071 33.1394 16.6129 33.5427C16.6302 41.204 16.6475 48.8652 16.6302 56.5208C16.6302 57.2235 16.6475 58.1337 16.2442 58.5772C15.6336 59.2454 14.6774 59.9482 13.8479 59.9712C12.8226 60 11.9009 59.1936 11.7223 57.9839C11.6359 57.3733 11.6475 56.7454 11.6475 56.1233C11.6475 50.2362 11.682 44.3434 11.6475 38.4563C11.6475 37.5116 11.8433 37.0968 12.8456 36.757C13.6809 36.4689 14.4009 35.6049 14.9597 34.8445C15.5184 34.0784 15.818 33.1222 16.2269 32.2466L16.5265 32.3272Z" fill="black"/>
<path d="M21.7857 25.3111C23.3986 24.3145 24.5564 23.5714 25.7373 22.8629C27.2638 21.9528 28.5023 22.0795 29.1475 23.1682C29.7696 24.2224 29.3664 25.3629 27.9608 26.2731C25.7488 27.7016 23.5311 29.1187 21.273 30.4724C19.2684 31.6763 17.8053 30.8353 17.7534 28.4966C17.7074 26.4401 17.7246 24.3779 17.6728 22.3215C17.6555 21.7569 17.477 21.2039 17.3675 20.6394C17.1659 20.6394 16.9643 20.6509 16.7684 20.6567C16.659 21.5726 16.5438 22.4885 16.3998 23.6982C15.1728 23.1452 14.0438 22.7074 12.9954 22.1141C12.7362 21.9643 12.5691 21.2558 12.6843 20.9159C13.1394 19.6141 13.773 18.3756 14.2396 17.0795C14.5392 16.2615 15.0288 16.0311 15.8583 16.0311C19.4873 16.0311 21.5726 17.9493 21.7742 21.6129C21.8318 22.6901 21.7857 23.7731 21.7857 25.3111Z" fill="black"/>
<path d="M10.9965 5.76032C13.3468 5.8064 15.3053 7.81101 15.2477 10.1152C15.1901 12.4942 13.0933 14.5046 10.7604 14.4124C8.46774 14.326 6.48041 12.2177 6.56106 9.96539C6.64746 7.67276 8.70967 5.71424 10.9908 5.76032H10.9965Z" fill="black"/>
<path d="M11.7396 34.81C12.0161 34.3434 12.333 33.8941 12.5634 33.3987C13.6809 31.0312 12.8802 28.9689 10.121 27.5519C8.80761 26.8779 8.49655 26.2385 9.25692 24.9079C10.1613 23.3238 10.3341 23.1625 12.0277 23.8825C13.174 24.3664 14.303 24.8848 15.4378 25.3918C16.4516 25.8411 16.7627 26.5323 16.273 27.5865C15.2823 29.7063 14.3606 31.8664 13.3295 33.9632C13.0876 34.4528 12.5115 34.7696 12.0853 35.1671C11.97 35.0519 11.8491 34.9309 11.7339 34.8157L11.7396 34.81Z" fill="black"/>
</svg>
