<svg xmlns="http://www.w3.org/2000/svg" xmlns:xlink="http://www.w3.org/1999/xlink" viewBox="0 0 441.86 71"><defs><style>.cls-1{fill:#fff;}.cls-2{fill:url(#linear-gradient);}.cls-3{fill-rule:evenodd;fill:url(#linear-gradient-2);}</style><linearGradient id="linear-gradient" x1="35.3" y1="70.63" x2="35.3" gradientUnits="userSpaceOnUse"><stop offset="0" stop-color="#7bc2e8"/><stop offset="1" stop-color="#1f6ab4"/></linearGradient><linearGradient id="linear-gradient-2" x1="34.13" y1="71" x2="34.13" y2="49.36" gradientUnits="userSpaceOnUse"><stop offset="0" stop-color="#89a289"/><stop offset="1" stop-color="#006233"/></linearGradient></defs><g id="Layer_2" data-name="Layer 2"><g id="Layer_1-2" data-name="Layer 1"><path class="cls-1" d="M82.76.93H89.6a16.68,16.68,0,0,1,4.59.55,8,8,0,0,1,3.46,2.05q4.06,3.83,4.06,11.64a25.15,25.15,0,0,1-.41,4.7A14.68,14.68,0,0,1,100,23.71a11.81,11.81,0,0,1-2.17,3.06,9.1,9.1,0,0,1-2.29,1.66,9.46,9.46,0,0,1-2.66.88,18.35,18.35,0,0,1-3.21.25H82.86a4,4,0,0,1-2.16-.48,2.24,2.24,0,0,1-.94-1.34,9.36,9.36,0,0,1-.22-2.26v-21a4,4,0,0,1,.76-2.71A3.15,3.15,0,0,1,82.76.93Zm2,4.59V25h4a18.31,18.31,0,0,0,2-.08,5.72,5.72,0,0,0,1.54-.39,3.8,3.8,0,0,0,1.38-.88q2.64-2.46,2.64-8.47a13.62,13.62,0,0,0-1.16-6.35,5.31,5.31,0,0,0-2.86-2.69,13,13,0,0,0-4.1-.57Z"/><path class="cls-1" d="M118.74,20.52H109.3a7.65,7.65,0,0,0,.66,3.2,4.82,4.82,0,0,0,1.72,2.09,4.19,4.19,0,0,0,2.36.7,5.25,5.25,0,0,0,1.58-.22,4.91,4.91,0,0,0,1.39-.7,10.43,10.43,0,0,0,1.24-1c.38-.36.87-.86,1.47-1.48a1.44,1.44,0,0,1,1.06-.35,1.67,1.67,0,0,1,1.2.44,1.69,1.69,0,0,1,.46,1.27,3.7,3.7,0,0,1-.51,1.69A6.4,6.4,0,0,1,120.38,28a8.63,8.63,0,0,1-2.6,1.47,10.21,10.21,0,0,1-3.6.59,9.17,9.17,0,0,1-7.24-2.93,11.59,11.59,0,0,1-2.58-7.95,14.31,14.31,0,0,1,.64-4.38,9.72,9.72,0,0,1,1.86-3.47,8.12,8.12,0,0,1,3-2.22,10,10,0,0,1,4-.77,8.69,8.69,0,0,1,4.85,1.32,8.38,8.38,0,0,1,3,3.41,9.72,9.72,0,0,1,1,4.26c0,1.34-.35,2.21-1,2.6A6,6,0,0,1,118.74,20.52Zm-9.44-3h8.75a6.84,6.84,0,0,0-1.33-4.09,3.8,3.8,0,0,0-3-1.36,3.71,3.71,0,0,0-3,1.38A7.23,7.23,0,0,0,109.3,17.49Z"/><path class="cls-1" d="M139.55,20.52H130.1a7.65,7.65,0,0,0,.67,3.2,4.87,4.87,0,0,0,1.71,2.09,4.21,4.21,0,0,0,2.36.7,5.32,5.32,0,0,0,1.59-.22,4.91,4.91,0,0,0,1.39-.7,10.43,10.43,0,0,0,1.24-1c.37-.36.86-.86,1.46-1.48a1.49,1.49,0,0,1,1.07-.35,1.56,1.56,0,0,1,1.66,1.71,3.61,3.61,0,0,1-.52,1.69A6.35,6.35,0,0,1,141.19,28a8.63,8.63,0,0,1-2.6,1.47,10.29,10.29,0,0,1-3.6.59,9.14,9.14,0,0,1-7.24-2.93,11.59,11.59,0,0,1-2.58-7.95,14.63,14.63,0,0,1,.63-4.38,10,10,0,0,1,1.86-3.47,8.23,8.23,0,0,1,3-2.22,10,10,0,0,1,4-.77,8.7,8.7,0,0,1,4.86,1.32,8.28,8.28,0,0,1,3,3.41,9.58,9.58,0,0,1,1,4.26c0,1.34-.35,2.21-1,2.6A6,6,0,0,1,139.55,20.52Zm-9.45-3h8.76a6.91,6.91,0,0,0-1.33-4.09A3.83,3.83,0,0,0,134.47,12a3.69,3.69,0,0,0-3,1.38A7.31,7.31,0,0,0,130.1,17.49Z"/><path class="cls-1" d="M151.67,22.35v4.46a3.67,3.67,0,0,1-.69,2.43,2.19,2.19,0,0,1-1.75.81,2.12,2.12,0,0,1-1.72-.82,3.79,3.79,0,0,1-.67-2.42V12c0-2.39.79-3.59,2.35-3.59a1.9,1.9,0,0,1,1.74.84,5,5,0,0,1,.58,2.48,9.28,9.28,0,0,1,1.78-2.48,3.45,3.45,0,0,1,2.43-.84,5.79,5.79,0,0,1,3,.84,2.52,2.52,0,0,1,1.43,2.23,2.23,2.23,0,0,1-.61,1.61,1.83,1.83,0,0,1-1.32.63,5.6,5.6,0,0,1-1.28-.36,5.51,5.51,0,0,0-1.8-.36,2.47,2.47,0,0,0-1.73.61,4,4,0,0,0-1,1.83,14.18,14.18,0,0,0-.52,2.88C151.72,19.4,151.67,20.75,151.67,22.35Z"/><path class="cls-1" d="M165,11.69l3.15,11.91L171,12.53q.47-1.74.69-2.37A2.9,2.9,0,0,1,172.56,9a2.29,2.29,0,0,1,1.67-.58,2.34,2.34,0,0,1,1.69.58,3.27,3.27,0,0,1,.86,1.25c.16.45.39,1.22.69,2.33l2.86,11.07,3.19-11.91c.21-.86.38-1.48.51-1.87a2.46,2.46,0,0,1,.66-1A1.83,1.83,0,0,1,186,8.37a2,2,0,0,1,1.51.66,2.22,2.22,0,0,1,.63,1.57,9,9,0,0,1-.54,2.48l-4,12.77c-.34,1.08-.61,1.86-.8,2.34a3.33,3.33,0,0,1-.89,1.29,2.35,2.35,0,0,1-1.67.57,2.37,2.37,0,0,1-1.73-.61,3.6,3.6,0,0,1-.93-1.48c-.2-.59-.41-1.35-.65-2.29l-2.76-10.39-2.67,10.39A14,14,0,0,1,170.41,29a2.3,2.3,0,0,1-2.18,1.1,2.51,2.51,0,0,1-1.35-.34,2.83,2.83,0,0,1-.93-1,7.5,7.5,0,0,1-.66-1.5c-.18-.58-.33-1-.44-1.38l-3.91-12.77a9.79,9.79,0,0,1-.58-2.48A2.26,2.26,0,0,1,161,9.05a2,2,0,0,1,1.52-.68,1.72,1.72,0,0,1,1.63.75A12.15,12.15,0,0,1,165,11.69Z"/><path class="cls-1" d="M202.48,27a14.64,14.64,0,0,1-3.38,2.26,8.72,8.72,0,0,1-3.67.75,6.45,6.45,0,0,1-3.27-.81A5.6,5.6,0,0,1,190,27a6.23,6.23,0,0,1-.76-3,5.73,5.73,0,0,1,1.26-3.73,6.2,6.2,0,0,1,3.45-2.07l2.28-.52c1.22-.28,2.26-.53,3.12-.76s1.81-.5,2.83-.83A6,6,0,0,0,201.4,13c-.46-.66-1.4-1-2.83-1a5.36,5.36,0,0,0-2.76.57,4.79,4.79,0,0,0-1.6,1.7c-.44.75-.75,1.25-.93,1.49a1.47,1.47,0,0,1-1.18.36,2,2,0,0,1-1.41-.57,2,2,0,0,1-.59-1.48,4.78,4.78,0,0,1,.9-2.73,6.44,6.44,0,0,1,2.82-2.19,11.63,11.63,0,0,1,4.75-.86,12.36,12.36,0,0,1,5,.83,4.88,4.88,0,0,1,2.58,2.63,12.55,12.55,0,0,1,.75,4.76c0,1.25,0,2.31,0,3.19s0,1.84,0,2.91a11.72,11.72,0,0,0,.45,3.13,11.23,11.23,0,0,1,.46,2.1,2.07,2.07,0,0,1-.7,1.5,2.28,2.28,0,0,1-1.59.67,2.1,2.1,0,0,1-1.47-.77A12,12,0,0,1,202.48,27Zm-.31-7.71a23.8,23.8,0,0,1-3.09.91c-1.35.31-2.29.55-2.8.7a3.67,3.67,0,0,0-1.49.88,2.35,2.35,0,0,0-.71,1.82,2.84,2.84,0,0,0,.83,2.06,2.91,2.91,0,0,0,2.18.85,5.23,5.23,0,0,0,2.64-.69,4.38,4.38,0,0,0,1.78-1.79,8.79,8.79,0,0,0,.66-4Z"/><path class="cls-1" d="M211.08,26.81V3.68a3.86,3.86,0,0,1,.65-2.42,2.09,2.09,0,0,1,1.74-.82,2.19,2.19,0,0,1,1.77.81,3.73,3.73,0,0,1,.67,2.43V26.81a3.67,3.67,0,0,1-.68,2.43,2.19,2.19,0,0,1-1.76.81,2.08,2.08,0,0,1-1.72-.84A3.81,3.81,0,0,1,211.08,26.81Z"/><path class="cls-1" d="M232.21,27.61,228,19.87l-2.62,2.74v4.24a3.45,3.45,0,0,1-.74,2.37,2.21,2.21,0,0,1-1.69.83,2.09,2.09,0,0,1-1.75-.82,3.92,3.92,0,0,1-.64-2.42V4.07a4.9,4.9,0,0,1,.62-2.7A2,2,0,0,1,222.9.44a2.11,2.11,0,0,1,1.77.84,4,4,0,0,1,.66,2.48V16.69l5.43-6.29a13.62,13.62,0,0,1,1.54-1.6,2,2,0,0,1,1.29-.43,2,2,0,0,1,1.5.63,2.25,2.25,0,0,1,.6,1.6c0,.78-.65,1.82-2,3.12l-2.56,2.6,5,8.59c.36.64.63,1.13.79,1.46a2.19,2.19,0,0,1,.24.95,3,3,0,0,1-.63,2,2.07,2.07,0,0,1-1.66.73,1.75,1.75,0,0,1-1.36-.53A12.49,12.49,0,0,1,232.21,27.61Z"/><path class="cls-1" d="M268.6,21a9.06,9.06,0,0,1-1.21,4.67,8.32,8.32,0,0,1-3.54,3.24,12.26,12.26,0,0,1-5.54,1.17,11.54,11.54,0,0,1-6.34-1.6,9,9,0,0,1-2.87-3.08A7.47,7.47,0,0,1,248,21.63a2.64,2.64,0,0,1,.67-1.81,2.15,2.15,0,0,1,1.69-.75,1.89,1.89,0,0,1,1.4.59,4.58,4.58,0,0,1,1,1.74,12.21,12.21,0,0,0,1.07,2.28,4.65,4.65,0,0,0,1.62,1.52,5.61,5.61,0,0,0,2.75.59,5.78,5.78,0,0,0,3.79-1.2,3.74,3.74,0,0,0,1.46-3,3.32,3.32,0,0,0-.79-2.31,5,5,0,0,0-2-1.36c-.83-.31-2-.64-3.34-1a23.26,23.26,0,0,1-4.68-1.68,7.9,7.9,0,0,1-3-2.64,7.41,7.41,0,0,1-1.1-4.15,7.63,7.63,0,0,1,1.17-4.2A7.42,7.42,0,0,1,253,1.43a12.68,12.68,0,0,1,5.21-1,11.9,11.9,0,0,1,4.13.65,8.67,8.67,0,0,1,2.89,1.74,7.1,7.1,0,0,1,1.68,2.28,5.74,5.74,0,0,1,.53,2.32,3,3,0,0,1-.66,1.87,2,2,0,0,1-1.66.83,1.81,1.81,0,0,1-1.37-.5,6.74,6.74,0,0,1-1-1.63,7.46,7.46,0,0,0-1.7-2.53,4.61,4.61,0,0,0-3.19-.91,5.13,5.13,0,0,0-3.28,1,3,3,0,0,0-1.25,2.37,2.51,2.51,0,0,0,.43,1.48A3.6,3.6,0,0,0,255,10.48a7.26,7.26,0,0,0,1.5.7c.51.17,1.34.42,2.51.74a38.23,38.23,0,0,1,4,1.25,11.75,11.75,0,0,1,3,1.66,6.69,6.69,0,0,1,1.94,2.48A8.5,8.5,0,0,1,268.6,21Z"/><path class="cls-1" d="M274.44,5.89a2.43,2.43,0,0,1-1.72-.68A2.55,2.55,0,0,1,272,3.27a2.52,2.52,0,0,1,.74-1.86,2.33,2.33,0,0,1,1.7-.74,2.43,2.43,0,0,1,1.67.67,2.5,2.5,0,0,1,.72,1.93,2.57,2.57,0,0,1-.71,1.93A2.32,2.32,0,0,1,274.44,5.89Zm2.39,5.51V26.81a3.68,3.68,0,0,1-.69,2.42,2.17,2.17,0,0,1-1.75.82,2.08,2.08,0,0,1-1.72-.84,3.75,3.75,0,0,1-.67-2.4V11.55a3.61,3.61,0,0,1,.67-2.38,2.13,2.13,0,0,1,1.72-.8,2.22,2.22,0,0,1,1.75.8A3.31,3.31,0,0,1,276.83,11.4Z"/><path class="cls-1" d="M280.71,8.84h1.15V7.24a11.34,11.34,0,0,1,.57-4,3.89,3.89,0,0,1,1.95-2.15,8.64,8.64,0,0,1,3.76-.67q4.23,0,4.23,2.29A1.87,1.87,0,0,1,291.92,4a1.29,1.29,0,0,1-1,.53,6.58,6.58,0,0,1-1-.12,8.08,8.08,0,0,0-1.17-.11,1.63,1.63,0,0,0-1.68.85,6.19,6.19,0,0,0-.37,2.43V8.84h1.18q2.76,0,2.76,1.83c0,.88-.24,1.43-.73,1.66a4.7,4.7,0,0,1-2,.36h-1.18V26.81a3.74,3.74,0,0,1-.68,2.41,2.19,2.19,0,0,1-1.76.83,2.12,2.12,0,0,1-1.71-.83,3.68,3.68,0,0,1-.68-2.41V12.69h-1.33a2.35,2.35,0,0,1-1.66-.54,1.81,1.81,0,0,1-.59-1.4C278.28,9.48,279.09,8.84,280.71,8.84Z"/><path class="cls-1" d="M304.17,27a14.9,14.9,0,0,1-3.39,2.26,8.72,8.72,0,0,1-3.67.75,6.45,6.45,0,0,1-3.27-.81,5.57,5.57,0,0,1-2.16-2.2,6.12,6.12,0,0,1-.76-3,5.72,5.72,0,0,1,1.25-3.73,6.2,6.2,0,0,1,3.45-2.07l2.28-.52c1.22-.28,2.26-.53,3.13-.76s1.8-.5,2.82-.83a6,6,0,0,0-.77-3.09q-.68-1-2.82-1a5.38,5.38,0,0,0-2.77.57,4.68,4.68,0,0,0-1.59,1.7c-.45.75-.76,1.25-.94,1.49a1.45,1.45,0,0,1-1.18.36,1.94,1.94,0,0,1-1.4-.57,2,2,0,0,1-.6-1.48,4.73,4.73,0,0,1,.91-2.73,6.41,6.41,0,0,1,2.81-2.19,11.64,11.64,0,0,1,4.76-.86,12.34,12.34,0,0,1,5,.83,4.85,4.85,0,0,1,2.58,2.63,12.55,12.55,0,0,1,.75,4.76c0,1.25,0,2.31,0,3.19s0,1.84,0,2.91a11.72,11.72,0,0,0,.45,3.13,10.88,10.88,0,0,1,.45,2.1,2,2,0,0,1-.7,1.5,2.26,2.26,0,0,1-1.58.67,2.06,2.06,0,0,1-1.47-.77A11.13,11.13,0,0,1,304.17,27Zm-.32-7.71a23.8,23.8,0,0,1-3.09.91c-1.35.31-2.28.55-2.8.7a3.67,3.67,0,0,0-1.49.88,2.35,2.35,0,0,0-.71,1.82,2.81,2.81,0,0,0,.84,2.06,2.88,2.88,0,0,0,2.17.85,5.27,5.27,0,0,0,2.65-.69,4.35,4.35,0,0,0,1.77-1.79,8.79,8.79,0,0,0,.66-4Z"/><path class="cls-1" d="M312.77,26.81V3.68a3.86,3.86,0,0,1,.64-2.42,2.09,2.09,0,0,1,1.75-.82,2.19,2.19,0,0,1,1.77.81,3.79,3.79,0,0,1,.67,2.43V26.81a3.73,3.73,0,0,1-.68,2.43,2.2,2.2,0,0,1-1.76.81,2.1,2.1,0,0,1-1.73-.84A3.81,3.81,0,0,1,312.77,26.81Z"/><path class="cls-1" d="M350.24,21A9.06,9.06,0,0,1,349,25.64a8.29,8.29,0,0,1-3.55,3.24,12.23,12.23,0,0,1-5.54,1.17,11.48,11.48,0,0,1-6.33-1.6,9,9,0,0,1-2.88-3.08,7.55,7.55,0,0,1-1.1-3.74,2.68,2.68,0,0,1,.66-1.81,2.16,2.16,0,0,1,1.69-.75,1.89,1.89,0,0,1,1.41.59,4.71,4.71,0,0,1,1,1.74,12.21,12.21,0,0,0,1.07,2.28,4.49,4.49,0,0,0,1.62,1.52,5.59,5.59,0,0,0,2.74.59,5.8,5.8,0,0,0,3.8-1.2,3.74,3.74,0,0,0,1.46-3,3.37,3.37,0,0,0-.79-2.31,5,5,0,0,0-2-1.36c-.83-.31-1.94-.64-3.33-1a23.26,23.26,0,0,1-4.68-1.68,7.82,7.82,0,0,1-3-2.64,7.34,7.34,0,0,1-1.11-4.15,7.63,7.63,0,0,1,1.17-4.2,7.5,7.5,0,0,1,3.38-2.82,12.66,12.66,0,0,1,5.2-1,11.86,11.86,0,0,1,4.13.65,8.62,8.62,0,0,1,2.9,1.74,7.41,7.41,0,0,1,1.68,2.28,5.74,5.74,0,0,1,.53,2.32,2.9,2.9,0,0,1-.67,1.87,2,2,0,0,1-1.65.83,1.8,1.8,0,0,1-1.37-.5,7,7,0,0,1-1-1.63,7.32,7.32,0,0,0-1.7-2.53,4.59,4.59,0,0,0-3.18-.91,5.11,5.11,0,0,0-3.28,1A3,3,0,0,0,335,7.92a2.58,2.58,0,0,0,.42,1.48,3.81,3.81,0,0,0,1.17,1.08,7.58,7.58,0,0,0,1.51.7c.5.17,1.34.42,2.51.74a38.23,38.23,0,0,1,4,1.25,11.92,11.92,0,0,1,3,1.66,6.69,6.69,0,0,1,1.94,2.48A8.5,8.5,0,0,1,350.24,21Z"/><path class="cls-1" d="M371,23.45a5,5,0,0,1-.54,2.13,7.45,7.45,0,0,1-1.64,2.16A8.46,8.46,0,0,1,366,29.39a11,11,0,0,1-3.79.62,8.8,8.8,0,0,1-7-2.88,11.37,11.37,0,0,1-2.51-7.73,13.8,13.8,0,0,1,1.15-5.8,8.83,8.83,0,0,1,3.33-3.89,9.49,9.49,0,0,1,5.2-1.38,9.31,9.31,0,0,1,3.44.61,8.6,8.6,0,0,1,2.65,1.56,7.43,7.43,0,0,1,1.67,2,4.38,4.38,0,0,1,.57,2,2.22,2.22,0,0,1-.64,1.62,2.1,2.1,0,0,1-1.57.67,1.49,1.49,0,0,1-1-.35,4.85,4.85,0,0,1-.89-1.1,8,8,0,0,0-1.85-2.23,3.92,3.92,0,0,0-2.45-.74,4,4,0,0,0-3.45,1.85,8.53,8.53,0,0,0-1.31,5,10.43,10.43,0,0,0,.34,2.76,6.35,6.35,0,0,0,1,2.15,4.31,4.31,0,0,0,1.54,1.35,4.37,4.37,0,0,0,2,.46,4.1,4.1,0,0,0,2.48-.75A6.41,6.41,0,0,0,366.7,23a5.16,5.16,0,0,1,.95-1.41,1.71,1.71,0,0,1,1.26-.51,1.79,1.79,0,0,1,1.47.75A2.49,2.49,0,0,1,371,23.45Z"/><path class="cls-1" d="M378.27,3.68v7.91a10.6,10.6,0,0,1,1.79-1.85,6.25,6.25,0,0,1,1.94-1,7.35,7.35,0,0,1,2.28-.34,6.23,6.23,0,0,1,3.27.86,5.94,5.94,0,0,1,2.24,2.5,6.64,6.64,0,0,1,.69,2.14,19.79,19.79,0,0,1,.17,2.72V26.81a3.79,3.79,0,0,1-.66,2.42,2.14,2.14,0,0,1-1.76.82c-1.59,0-2.39-1.08-2.39-3.24v-9a9,9,0,0,0-.69-3.93,2.65,2.65,0,0,0-2.62-1.38,3.66,3.66,0,0,0-2.32.81,4.83,4.83,0,0,0-1.55,2.22,15.56,15.56,0,0,0-.39,4.24v7a3.87,3.87,0,0,1-.65,2.41,2.15,2.15,0,0,1-1.79.83c-1.6,0-2.39-1.08-2.39-3.24V3.68a3.92,3.92,0,0,1,.63-2.43,2.08,2.08,0,0,1,1.76-.81,2.15,2.15,0,0,1,1.79.82A3.86,3.86,0,0,1,378.27,3.68Z"/><path class="cls-1" d="M412.79,19.21a13.7,13.7,0,0,1-.68,4.39,9.81,9.81,0,0,1-1.94,3.46,8.61,8.61,0,0,1-3.05,2.22,9.91,9.91,0,0,1-4,.77,9.59,9.59,0,0,1-3.94-.78,8.8,8.8,0,0,1-3-2.24,9.83,9.83,0,0,1-1.94-3.44,13.78,13.78,0,0,1-.67-4.38,13.86,13.86,0,0,1,.68-4.43,9.84,9.84,0,0,1,1.92-3.44,8.62,8.62,0,0,1,3.05-2.2,10.5,10.5,0,0,1,7.92,0,8.53,8.53,0,0,1,3.07,2.23,9.88,9.88,0,0,1,1.93,3.44A13.57,13.57,0,0,1,412.79,19.21Zm-4.85,0a8.67,8.67,0,0,0-1.3-5.08,4.09,4.09,0,0,0-3.5-1.81,4,4,0,0,0-2.49.81A5,5,0,0,0,399,15.52a10.58,10.58,0,0,0-.59,3.69,10.39,10.39,0,0,0,.58,3.65,5.19,5.19,0,0,0,1.64,2.39,4,4,0,0,0,2.52.83,4.07,4.07,0,0,0,3.5-1.82A8.63,8.63,0,0,0,407.94,19.21Z"/><path class="cls-1" d="M434,19.21a14,14,0,0,1-.67,4.39,9.83,9.83,0,0,1-1.95,3.46,8.66,8.66,0,0,1-3,2.22,10,10,0,0,1-4,.77,9.59,9.59,0,0,1-3.94-.78,8.8,8.8,0,0,1-3-2.24,9.83,9.83,0,0,1-1.94-3.44,13.79,13.79,0,0,1-.66-4.38,13.86,13.86,0,0,1,.67-4.43,9.86,9.86,0,0,1,1.93-3.44,8.5,8.5,0,0,1,3-2.2,10.53,10.53,0,0,1,7.93,0,8.58,8.58,0,0,1,3.06,2.23,9.88,9.88,0,0,1,1.93,3.44A13.57,13.57,0,0,1,434,19.21Zm-4.85,0a8.6,8.6,0,0,0-1.3-5.08,4.09,4.09,0,0,0-3.5-1.81,4,4,0,0,0-2.49.81,5.06,5.06,0,0,0-1.66,2.39,10.58,10.58,0,0,0-.59,3.69,10.39,10.39,0,0,0,.58,3.65,5.19,5.19,0,0,0,1.64,2.39,4,4,0,0,0,2.52.83,4.07,4.07,0,0,0,3.5-1.82A8.56,8.56,0,0,0,429.1,19.21Z"/><path class="cls-1" d="M437,26.81V3.68a3.86,3.86,0,0,1,.64-2.42,2.09,2.09,0,0,1,1.74-.82,2.17,2.17,0,0,1,1.77.81,3.73,3.73,0,0,1,.68,2.43V26.81a3.73,3.73,0,0,1-.68,2.43,2.22,2.22,0,0,1-1.77.81,2.09,2.09,0,0,1-1.72-.84A3.81,3.81,0,0,1,437,26.81Z"/><path class="cls-1" d="M96.1,61.32l-1.24-3.59H84.31L83.08,61.4a13.92,13.92,0,0,1-1.24,2.9,1.91,1.91,0,0,1-1.68.75,2.39,2.39,0,0,1-1.76-.8,2.59,2.59,0,0,1-.76-1.82,4.38,4.38,0,0,1,.18-1.21c.12-.42.31-1,.58-1.74L85,40.89c.19-.53.41-1.18.68-1.92a10.71,10.71,0,0,1,.85-1.87,3.69,3.69,0,0,1,1.19-1.2,3.29,3.29,0,0,1,1.81-.46,3.36,3.36,0,0,1,1.83.46,3.69,3.69,0,0,1,1.18,1.18,8.29,8.29,0,0,1,.77,1.55c.2.56.47,1.3.78,2.22l6.78,18.48a10.1,10.1,0,0,1,.8,3.06,2.67,2.67,0,0,1-.76,1.83,2.36,2.36,0,0,1-1.81.83,2.18,2.18,0,0,1-1.06-.24,2.26,2.26,0,0,1-.74-.67,5.84,5.84,0,0,1-.65-1.29C96.46,62.27,96.26,61.76,96.1,61.32Zm-10.41-8h7.75L89.53,41.55Z"/><path class="cls-1" d="M104.5,61.81V38.68a3.86,3.86,0,0,1,.65-2.42,2.09,2.09,0,0,1,1.74-.82,2.19,2.19,0,0,1,1.77.81,3.73,3.73,0,0,1,.67,2.43V61.81a3.73,3.73,0,0,1-.68,2.43,2.19,2.19,0,0,1-1.76.81,2.08,2.08,0,0,1-1.72-.84A3.75,3.75,0,0,1,104.5,61.81Z"/><path class="cls-1" d="M126.14,62v-.68a11.77,11.77,0,0,1-1.82,2,6.62,6.62,0,0,1-2.09,1.22,7.64,7.64,0,0,1-2.58.4,6.19,6.19,0,0,1-3.14-.8A5.45,5.45,0,0,1,114.36,62a10.62,10.62,0,0,1-.91-4.88V46.55a3.68,3.68,0,0,1,.66-2.39,2.13,2.13,0,0,1,1.73-.79,2.21,2.21,0,0,1,1.77.8,3.61,3.61,0,0,1,.67,2.38v8.54a14.29,14.29,0,0,0,.29,3.11,4,4,0,0,0,1,2,2.78,2.78,0,0,0,2,.71,3.83,3.83,0,0,0,2.3-.8A4.68,4.68,0,0,0,125.45,58a18.51,18.51,0,0,0,.41-5V46.55a3.61,3.61,0,0,1,.67-2.38,2.19,2.19,0,0,1,1.75-.8,2.11,2.11,0,0,1,1.73.79,3.68,3.68,0,0,1,.66,2.39V62a3.53,3.53,0,0,1-.63,2.29,2.09,2.09,0,0,1-3.25,0A3.43,3.43,0,0,1,126.14,62Z"/><path class="cls-1" d="M150.82,54.6v7.09a3.91,3.91,0,0,1-.69,2.52,2.24,2.24,0,0,1-1.82.84,2.18,2.18,0,0,1-1.78-.84,4,4,0,0,1-.68-2.52v-8.5a30.92,30.92,0,0,0-.12-3.12,3.65,3.65,0,0,0-.68-1.83,2,2,0,0,0-1.73-.71,3,3,0,0,0-3.12,1.8,13.86,13.86,0,0,0-.75,5.15v7.21a3.91,3.91,0,0,1-.69,2.51,2.17,2.17,0,0,1-1.79.85,2.23,2.23,0,0,1-1.8-.85,3.91,3.91,0,0,1-.7-2.51V46.44a3.57,3.57,0,0,1,.63-2.29,2,2,0,0,1,1.66-.78,2.12,2.12,0,0,1,1.65.73,2.91,2.91,0,0,1,.66,2v.51a8.79,8.79,0,0,1,2.69-2.44,6.58,6.58,0,0,1,3.19-.78,5.92,5.92,0,0,1,3.13.8,6,6,0,0,1,2.16,2.42,8.59,8.59,0,0,1,2.62-2.43,6.13,6.13,0,0,1,3.09-.79,6.58,6.58,0,0,1,3.42.86,5.26,5.26,0,0,1,2.14,2.46,12.38,12.38,0,0,1,.62,4.55V61.69a3.91,3.91,0,0,1-.69,2.52,2.25,2.25,0,0,1-1.83.84,2.19,2.19,0,0,1-1.79-.85,3.85,3.85,0,0,1-.7-2.51v-9A22.49,22.49,0,0,0,157,50a3.34,3.34,0,0,0-.72-1.74,2.17,2.17,0,0,0-1.77-.7,3,3,0,0,0-1.81.62,4.23,4.23,0,0,0-1.34,1.68A14.78,14.78,0,0,0,150.82,54.6Z"/><path class="cls-1" d="M170.48,46.32V47a8.84,8.84,0,0,1,2.79-2.72,6.8,6.8,0,0,1,3.47-.87,6.46,6.46,0,0,1,3.42.92,5.59,5.59,0,0,1,2.24,2.6A6.47,6.47,0,0,1,183,49a23.14,23.14,0,0,1,.14,2.9v9.92a3.79,3.79,0,0,1-.66,2.42,2.1,2.1,0,0,1-1.72.82,2.16,2.16,0,0,1-1.76-.84,3.81,3.81,0,0,1-.67-2.4V52.92a9.71,9.71,0,0,0-.66-4,2.64,2.64,0,0,0-2.65-1.4,3.66,3.66,0,0,0-2.35.85,4.92,4.92,0,0,0-1.56,2.33,18.83,18.83,0,0,0-.35,4.46v6.68a3.73,3.73,0,0,1-.68,2.43,2.2,2.2,0,0,1-1.76.81,2.11,2.11,0,0,1-1.72-.84,3.75,3.75,0,0,1-.67-2.4V46.4a3.61,3.61,0,0,1,.6-2.28,2,2,0,0,1,1.65-.75,2.11,2.11,0,0,1,1.15.33,2.36,2.36,0,0,1,.82,1A3.9,3.9,0,0,1,170.48,46.32Z"/><path class="cls-1" d="M189.69,40.89a2.43,2.43,0,0,1-1.72-.68,2.55,2.55,0,0,1-.72-1.94,2.52,2.52,0,0,1,.74-1.86,2.33,2.33,0,0,1,1.7-.74,2.43,2.43,0,0,1,1.67.67,2.5,2.5,0,0,1,.72,1.93,2.57,2.57,0,0,1-.71,1.93A2.32,2.32,0,0,1,189.69,40.89Zm2.39,5.51V61.81a3.68,3.68,0,0,1-.69,2.42,2.17,2.17,0,0,1-1.75.82,2.08,2.08,0,0,1-1.72-.84,3.75,3.75,0,0,1-.67-2.4V46.55a3.61,3.61,0,0,1,.67-2.38,2.13,2.13,0,0,1,1.72-.8,2.22,2.22,0,0,1,1.75.8A3.31,3.31,0,0,1,192.08,46.4Z"/><path class="cls-1" d="M211.86,38.92,222,55.79v-17a4,4,0,0,1,.64-2.49,2.1,2.1,0,0,1,1.74-.83,2.17,2.17,0,0,1,1.79.83,3.94,3.94,0,0,1,.66,2.49V61.28q0,3.77-2.84,3.77a3.42,3.42,0,0,1-1.27-.23,3.09,3.09,0,0,1-1.06-.71,6.28,6.28,0,0,1-.92-1.14c-.28-.44-.57-.88-.85-1.34L210,45V61.73a3.84,3.84,0,0,1-.69,2.48,2.19,2.19,0,0,1-1.77.84,2.15,2.15,0,0,1-1.79-.85,3.91,3.91,0,0,1-.67-2.47V39.64a6.86,6.86,0,0,1,.28-2.21A3.12,3.12,0,0,1,206.48,36a2.85,2.85,0,0,1,1.69-.56,2.81,2.81,0,0,1,1.21.25,2.93,2.93,0,0,1,.88.69,6.26,6.26,0,0,1,.78,1.11C211.31,38,211.58,38.42,211.86,38.92Z"/><path class="cls-1" d="M245,55.52h-9.45a7.65,7.65,0,0,0,.66,3.2,4.82,4.82,0,0,0,1.72,2.09,4.19,4.19,0,0,0,2.36.7,5.2,5.2,0,0,0,1.58-.22,4.91,4.91,0,0,0,1.39-.7,10.43,10.43,0,0,0,1.24-1c.38-.36.87-.86,1.47-1.48a1.46,1.46,0,0,1,1.06-.35,1.66,1.66,0,0,1,1.2.44,1.69,1.69,0,0,1,.46,1.27,3.7,3.7,0,0,1-.51,1.69A6.4,6.4,0,0,1,246.6,63a8.51,8.51,0,0,1-2.6,1.47,10.21,10.21,0,0,1-3.6.59,9.14,9.14,0,0,1-7.23-2.93,11.55,11.55,0,0,1-2.59-7.95,14.31,14.31,0,0,1,.64-4.38,9.72,9.72,0,0,1,1.86-3.47,8.12,8.12,0,0,1,3-2.22,10,10,0,0,1,4-.77,8.69,8.69,0,0,1,4.85,1.32,8.31,8.31,0,0,1,3,3.41,9.72,9.72,0,0,1,1,4.26c0,1.34-.35,2.21-1,2.6A5.9,5.9,0,0,1,245,55.52Zm-9.45-3h8.76a6.91,6.91,0,0,0-1.34-4.09A3.8,3.8,0,0,0,239.89,47a3.69,3.69,0,0,0-3,1.38A7.16,7.16,0,0,0,235.52,52.49Z"/><path class="cls-1" d="M252.56,43.84h.53v-3.2c0-.86,0-1.54.06-2a3.44,3.44,0,0,1,.34-1.26,2.24,2.24,0,0,1,.82-.88,2.12,2.12,0,0,1,1.18-.35,2.46,2.46,0,0,1,2.3,2,13.37,13.37,0,0,1,.13,2.08v3.63h1.77a2.11,2.11,0,0,1,1.56.54,1.83,1.83,0,0,1,.54,1.37,1.57,1.57,0,0,1-.77,1.51,4.63,4.63,0,0,1-2.2.43h-.9v9.8a15.8,15.8,0,0,0,.08,1.92,2.06,2.06,0,0,0,.42,1.1,1.39,1.39,0,0,0,1.13.42,5.66,5.66,0,0,0,1.15-.17,5.36,5.36,0,0,1,1.13-.16,1.39,1.39,0,0,1,1.05.51,1.87,1.87,0,0,1,.47,1.28,2.15,2.15,0,0,1-1.27,2,8,8,0,0,1-3.67.68,5.84,5.84,0,0,1-3.43-.84,3.87,3.87,0,0,1-1.53-2.32,17.54,17.54,0,0,1-.36-4V47.69h-.64a2.18,2.18,0,0,1-1.59-.55,1.86,1.86,0,0,1-.55-1.39,1.75,1.75,0,0,1,.58-1.37A2.35,2.35,0,0,1,252.56,43.84Z"/><path class="cls-1" d="M267.4,46.69l3.15,11.91,2.87-11.07c.3-1.16.53-2,.68-2.37a3,3,0,0,1,.83-1.21,2.72,2.72,0,0,1,3.36,0,3.27,3.27,0,0,1,.86,1.25c.17.45.4,1.22.69,2.33l2.87,11.07,3.18-11.91c.21-.86.38-1.48.51-1.87a2.46,2.46,0,0,1,.66-1,1.85,1.85,0,0,1,1.33-.44,2,2,0,0,1,1.5.66,2.23,2.23,0,0,1,.64,1.57,9.15,9.15,0,0,1-.55,2.48l-4,12.77c-.34,1.08-.61,1.86-.79,2.34a3.36,3.36,0,0,1-.9,1.29,2.73,2.73,0,0,1-3.39,0A3.6,3.6,0,0,1,280,63c-.2-.59-.42-1.35-.66-2.29L276.6,50.28l-2.67,10.39A13.6,13.6,0,0,1,272.78,64a2.28,2.28,0,0,1-2.17,1.1,2.52,2.52,0,0,1-1.36-.34,2.83,2.83,0,0,1-.93-1,7.51,7.51,0,0,1-.65-1.5c-.19-.58-.34-1-.44-1.38l-3.91-12.77a10,10,0,0,1-.59-2.48,2.26,2.26,0,0,1,.62-1.55,2,2,0,0,1,1.52-.68,1.71,1.71,0,0,1,1.63.75A12.15,12.15,0,0,1,267.4,46.69Z"/><path class="cls-1" d="M310.73,54.21a13.7,13.7,0,0,1-.67,4.39,9.83,9.83,0,0,1-1.95,3.46,8.57,8.57,0,0,1-3,2.22,10,10,0,0,1-4,.77,9.64,9.64,0,0,1-3.95-.78,8.77,8.77,0,0,1-3-2.24,9.85,9.85,0,0,1-1.95-3.44,14.92,14.92,0,0,1,0-8.81,9.86,9.86,0,0,1,1.93-3.44,8.58,8.58,0,0,1,3-2.2,10.53,10.53,0,0,1,7.93,0,8.58,8.58,0,0,1,3.06,2.23,9.74,9.74,0,0,1,1.94,3.44A13.85,13.85,0,0,1,310.73,54.21Zm-4.85,0a8.6,8.6,0,0,0-1.3-5.08,4.27,4.27,0,0,0-6-1,5.06,5.06,0,0,0-1.66,2.39,12,12,0,0,0,0,7.34,5.2,5.2,0,0,0,1.65,2.39,3.94,3.94,0,0,0,2.52.83,4.05,4.05,0,0,0,3.49-1.82A8.56,8.56,0,0,0,305.88,54.21Z"/><path class="cls-1" d="M318.61,57.35v4.46a3.67,3.67,0,0,1-.69,2.43,2.21,2.21,0,0,1-1.76.81,2.11,2.11,0,0,1-1.71-.82,3.73,3.73,0,0,1-.67-2.42V47c0-2.39.78-3.59,2.35-3.59a1.89,1.89,0,0,1,1.73.84,5,5,0,0,1,.59,2.48,9.28,9.28,0,0,1,1.77-2.48,3.46,3.46,0,0,1,2.44-.84,5.75,5.75,0,0,1,2.95.84A2.5,2.5,0,0,1,327,46.44a2.23,2.23,0,0,1-.61,1.61,1.79,1.79,0,0,1-1.31.63,5.62,5.62,0,0,1-1.29-.36A5.45,5.45,0,0,0,322,48a2.48,2.48,0,0,0-1.74.61,4.16,4.16,0,0,0-1,1.83,13.56,13.56,0,0,0-.51,2.88C318.65,54.4,318.61,55.75,318.61,57.35Z"/><path class="cls-1" d="M340.08,62.61l-4.26-7.74-2.62,2.74v4.24a3.45,3.45,0,0,1-.73,2.37,2.21,2.21,0,0,1-1.69.83,2.08,2.08,0,0,1-1.75-.82,3.86,3.86,0,0,1-.64-2.42V39.07a4.9,4.9,0,0,1,.62-2.7,2,2,0,0,1,1.77-.93,2.14,2.14,0,0,1,1.77.84,4,4,0,0,1,.65,2.48V51.69l5.43-6.29a15.51,15.51,0,0,1,1.54-1.6,2.14,2.14,0,0,1,2.8.2,2.25,2.25,0,0,1,.6,1.6c0,.78-.65,1.82-2,3.12L339,51.32,344,59.91c.37.64.63,1.13.79,1.46a2.19,2.19,0,0,1,.24,1,3,3,0,0,1-.63,2,2.06,2.06,0,0,1-1.65.73,1.73,1.73,0,0,1-1.36-.53A13.13,13.13,0,0,1,340.08,62.61Z"/><path class="cls-2" d="M70.6,35.31A35.3,35.3,0,1,1,35.3,0,35.31,35.31,0,0,1,70.6,35.31Z"/><path class="cls-1" d="M20.18,53.17A21.22,21.22,0,0,1,22,41.58s.91-.36-.24-1.81c0,0-6-9,2.34-12.45,0,0,4-1.1,12.3-.68-8.59-.64,7,1.58,6.8-4.1a73.67,73.67,0,0,0-6-5.76s-3.47-2.66-1.81-12.47c0,0,.21,5.81,2.44,5.11,0,0,2.62-.75.37,1,0,0-1.74.15-.2,3.31a3.62,3.62,0,0,0,2.79,2.42l1-3.65.56,4.24s4,5.06,3.13-1.69l1.21,1.83,1.36-1.14,1.38,2.54s1.37.13.89-3.48c0,0,0-2.71-2.44-3.35,0,0-1.08-1.54-.67-2.07l1.51,1.16S50.6,9,47.69,5.8c0,0,3.23-.35,4.12,5.69l-.27,2.35L53.8,12.1l-3.21,7.7.77,4.05a2.82,2.82,0,0,1-.47,1.83s-.69.25-1.19,5.51c0,0-.88,5.39-5.1,7.31a5.8,5.8,0,0,0,1.53,3.08,4.83,4.83,0,0,1-.21,3.86,6.3,6.3,0,0,0-.32,4.12c.23.68,1.08,1.29,1.67,1.86,0,0,1,2.58-2.49,1.69,0,0-2.05-.37-1.73-2.17l-.51-3.29s-.52-.57-2.18,1.64c0,0-1.44,3-2.83.38,0,0-.38-.57.33-1.55,1.21-1.68,3.81-3.68,3.65-5.53C41.34,41,39,39.37,37.88,39.35s-2.27.51-3.45.81c-1.38.34-3.38.35-4.54.73A8.8,8.8,0,0,0,28.06,43c-1.22,1.47-1.8,2.76-1.53,3.84a3.53,3.53,0,0,0,.39,2,41,41,0,0,0,4,5.92s.38,2.27-2.12.28l-5.76-7.86-.44,6.29S20.91,55.63,20.18,53.17Z"/><path class="cls-3" d="M12.06,51.88c5.66,4.82,13.31,1.95,14.81.62,1.14.48,3.61,5,8,5.55,10,1.28,13.66-8.22,15.6-8.69,1.73,0,8,13.33,13.25,7,0,0-8.75,14.28-29.21,14.66-21-.38-29.87-18.26-29.87-18.26S12.12,54,12.06,51.88Z"/></g></g></svg>