<svg width="60" height="87" viewBox="0 0 60 87" fill="none" xmlns="http://www.w3.org/2000/svg">
<path d="M56.6155 51.8947C56.6155 53.5915 56.6155 55.0833 56.6155 56.5669C56.6155 64.6816 56.6155 72.7881 56.6155 80.9028C56.6155 81.6487 56.6155 82.4028 56.5793 83.1487C56.4779 84.7553 55.8259 85.911 54.3334 86.1241C52.9424 86.3208 51.9933 85.5012 51.5731 84.0586C51.2978 83.1077 51.124 82.0832 51.124 81.0832C51.124 71.7471 51.1747 62.4111 51.2037 53.0669C51.2037 52.739 51.1385 52.4111 51.0877 51.9439H8.63305C8.63305 52.6078 8.63305 53.321 8.63305 54.0341C8.63305 63.3045 8.63305 72.575 8.63305 81.8455C8.63305 82.5258 8.81417 83.4274 8.50989 83.8372C7.83612 84.7471 6.98123 85.8372 6.05389 86.0586C4.75707 86.37 3.80799 85.2717 3.55442 83.7307C3.43126 83.0012 3.46749 82.2389 3.46024 81.493C3.46024 72.4275 3.46024 63.3619 3.46024 54.2964C3.46024 53.5587 3.46024 52.821 3.46024 51.9357C2.72127 51.8783 2.01852 52.0423 1.59108 51.7308C0.924551 51.2472 0.149354 50.5013 0.00445769 49.7308C-0.0752354 49.2882 0.931796 48.4603 1.56934 48.0177C1.92434 47.7718 2.51117 47.9275 2.98933 47.9275C20.8478 47.9275 38.7136 47.9275 56.5721 47.9193C57.0575 47.9193 57.5356 47.9193 58.021 47.9439C59.0788 48.0095 59.9627 48.3948 59.9989 49.7964C60.0351 51.1898 59.1875 51.6488 58.137 51.8046C57.724 51.862 57.311 51.8701 56.6083 51.9111L56.6155 51.8947Z" fill="black"/>
<path d="M37.3371 44.7227H29.8749C30.44 42.1243 30.9978 39.2965 28.7374 37.6489C26.9697 36.3621 24.76 35.8621 22.5504 34.9358C22.3548 34.4932 21.9635 33.608 21.5651 32.7145C20.971 33.567 20.2972 34.3703 19.7973 35.2883C19.3337 36.1408 19.0439 37.1244 18.5005 38.4932C19.7176 38.4932 20.6957 38.485 21.6737 38.4932C22.8184 38.5096 23.9704 38.4604 25.1078 38.5834C26.6292 38.7555 27.7377 40.1653 27.7087 41.6899C27.6797 43.1981 26.4915 44.6981 25.0136 44.7309C21.2753 44.8292 17.5369 44.8702 13.7986 44.7637C11.7121 44.7063 10.4877 42.5834 11.3354 40.4276C12.7771 36.7637 14.2695 33.108 16.0228 29.6244C17.3413 27.0096 19.58 25.5916 22.3258 25.5506C25.4628 25.5014 28.5998 25.4605 31.7296 25.567C33.0481 25.6162 33.7798 25.149 34.3884 23.7965C37.5254 16.8211 40.7494 9.89494 43.9443 2.95234C44.1689 2.46874 44.3718 1.96874 44.6616 1.54251C45.6034 0.149075 46.7916 -0.498463 48.2695 0.444156C49.675 1.34579 50.1604 2.78841 49.5156 4.45234C48.6969 6.56709 47.7117 8.59987 46.7626 10.649C43.8429 16.9851 40.8943 23.3047 38.0108 29.6654C37.6486 30.4686 37.4747 31.4686 37.453 32.3785C37.3878 35.7145 37.4312 39.0506 37.424 42.3948C37.424 43.1243 37.3588 43.862 37.3226 44.6981L37.3371 44.7227Z" fill="black"/>
<path d="M31.0485 54.8784C32.8308 54.8784 34.7434 54.821 36.6488 54.9357C36.9531 54.9521 37.4747 55.7062 37.482 56.1243C37.5254 63.8127 37.5689 71.5012 37.4747 79.1897C37.4457 81.616 35.9171 83.1979 34.0986 83.1979C32.3164 83.1979 30.7877 81.6406 30.766 79.3783C30.7008 71.4193 30.7588 63.4521 30.7732 55.4931C30.7732 55.3784 30.8747 55.2554 31.0485 54.8784Z" fill="black"/>
<path d="M22.6156 54.8702C24.4702 54.8702 26.3829 54.8128 28.281 54.9276C28.5926 54.9439 29.1142 55.698 29.1142 56.1079C29.1577 63.7964 29.2011 71.4849 29.1069 79.1734C29.078 81.616 27.571 83.1816 25.7453 83.1816C23.9052 83.1816 22.3982 81.5422 22.3837 79.1734C22.333 71.3455 22.3692 63.5259 22.3837 55.698C22.3837 55.5095 22.4779 55.321 22.6083 54.8702H22.6156Z" fill="black"/>
<path d="M29.9473 10.0343C33.2075 10.0425 35.7867 12.9769 35.7722 16.6654C35.7577 20.3212 33.1133 23.313 29.9184 23.2966C26.6727 23.2802 24.1225 20.3376 24.1225 16.6245C24.1225 12.8868 26.6582 10.0261 29.9473 10.0343Z" fill="black"/>
<path d="M40.293 54.9521H43.8212C43.8212 56.8702 43.8212 58.6898 43.8212 60.5095C43.8212 65.6242 43.8212 70.7308 43.8284 75.8455C43.8284 77.1816 43.3358 78.3619 42.1549 78.198C41.4739 78.1078 40.3871 76.9111 40.3727 76.1898C40.235 69.1816 40.293 62.1734 40.293 54.9521Z" fill="black"/>
<path d="M15.7982 55.0587C16.3415 54.9686 16.6893 54.8784 17.0298 54.862C17.6818 54.8374 18.3339 54.862 19.1091 54.862C19.196 55.5259 19.3119 56.0423 19.3192 56.5505C19.3337 62.739 19.3337 68.9357 19.3337 75.1242C19.3337 75.5341 19.4278 76.0586 19.2467 76.3209C18.7323 77.0422 18.1528 78.1078 17.5007 78.2144C16.4357 78.3865 15.8127 77.3947 15.8127 76.0996C15.8127 73.0423 15.8127 69.9767 15.8127 66.9193C15.8127 62.9931 15.8127 59.0669 15.8127 55.0669L15.7982 55.0587Z" fill="black"/>
</svg>
