<svg width="61" height="60" viewBox="0 0 61 60" fill="none" xmlns="http://www.w3.org/2000/svg">
<g clip-path="url(#clip0_421_1415)">
<path d="M16.681 12.5908C16.92 11.9818 17.1591 11.3784 17.3868 10.7694C18.2406 8.49824 19.8287 7.98027 21.9803 9.23252C23.5456 10.1432 24.0977 11.5833 24.1945 13.2682C24.2457 14.1106 24.2059 14.953 24.2059 15.9776C24.684 15.8296 25.0028 15.7841 25.2532 15.6418C25.9932 15.2149 26.699 14.7367 27.4276 14.2985C28.6628 13.5585 29.8182 13.6496 30.2907 14.5887C30.8713 15.7442 30.3818 16.5639 29.3458 17.19C27.5243 18.2943 25.737 19.4555 23.9099 20.5483C22.06 21.6526 20.7793 20.9297 20.7166 18.7496C20.6768 17.19 20.7166 15.6247 20.6939 14.0651C20.6882 13.5813 20.5743 13.1031 20.5117 12.6193L19.9881 12.5851C19.9084 13.2227 19.7547 13.8602 19.7604 14.492C19.7888 22.347 19.8458 30.2021 19.8913 38.0628C19.9027 39.816 17.9275 41.1194 16.0207 40.4819C16.9599 38.3303 16.4021 36.2812 15.8385 34.0897C15.3604 32.2171 15.6962 30.1395 15.6735 28.1586C15.6735 27.8285 15.7418 27.4756 15.6564 27.1682C15.5369 26.7185 15.3092 26.303 15.127 25.8704C14.9278 26.2859 14.5749 26.6901 14.5635 27.1113C14.5009 28.9043 14.5351 30.6973 14.5351 32.587C13.1576 32.1715 11.8996 31.8755 10.7271 31.3746C10.4482 31.2551 10.3571 30.4639 10.3571 29.9801C10.34 24.8231 10.3571 19.6604 10.3571 14.5034C10.3571 13.9057 10.2945 13.3023 10.266 12.7047L9.80496 12.625C9.7082 13.1373 9.52605 13.6496 9.52036 14.1618C9.47482 17.6169 9.46913 21.072 9.44636 24.5271C9.44636 24.9995 9.43498 25.472 9.41221 25.9444C9.36098 27.0088 8.78039 27.6862 7.74444 27.6976C6.6971 27.7089 6.10512 27.0259 6.06528 25.9672C6.03113 25.0678 6.0482 24.1685 6.05389 23.2691C6.06528 20.0019 6.05389 16.7347 6.10512 13.4731C6.15635 10.4051 7.68751 8.85684 10.6872 8.62916C11.6321 8.56086 12.207 8.83977 12.5087 9.77327C12.8331 10.7865 13.2543 11.7712 13.9374 12.7445C14.1537 11.515 14.3757 10.2856 14.6375 8.79992C14.8424 8.78854 15.349 8.76008 15.6279 8.74869C15.8955 10.1262 16.1231 11.3215 16.3565 12.5168C16.4704 12.5339 16.5785 12.5567 16.6924 12.5738L16.681 12.5908Z" fill="black"/>
<path d="M30.9566 54.4047C31.8275 53.4427 32.5846 52.3271 33.6091 51.5814C34.3093 51.0749 35.3851 50.9212 36.3015 50.8984C39.2386 50.8187 42.1757 50.8586 45.1128 50.8699C48.1296 50.8813 49.6949 52.1108 50.2129 55.0821C50.4292 56.3229 50.3723 57.6264 50.3153 58.8957C50.304 59.1747 49.7803 59.6186 49.4558 59.6585C48.6248 59.7666 47.7653 59.6926 46.6553 59.6926C46.6553 58.8161 46.6838 58.0305 46.644 57.2507C46.6041 56.5335 46.4903 55.822 46.4106 55.1105C46.2114 55.1276 46.0121 55.1447 45.8072 55.1618V59.6129H35.812C35.7323 58.1102 35.6526 56.6474 35.5729 55.1902C35.4021 55.1902 35.2257 55.1845 35.0549 55.1788C34.9696 56.6132 34.8842 58.0533 34.7931 59.5902H27.5528C27.456 58.0761 27.3536 56.5449 27.2511 55.0194C27.0462 55.0194 26.847 55.0194 26.6421 55.0194V59.5959H16.6127C16.5444 58.0704 16.4761 56.5677 16.4134 55.0707C16.2142 55.0707 16.015 55.0707 15.8101 55.0707C15.7816 55.9473 15.7361 56.8238 15.7247 57.7004C15.7019 59.704 15.7133 59.704 13.7382 59.6983C13.2714 59.6983 12.799 59.6983 12.1729 59.6983C11.9736 57.467 11.689 55.2927 12.6282 53.2663C13.3227 51.7579 14.6489 50.8699 16.3622 50.8415C19.5839 50.7846 22.8056 50.7561 26.0273 50.8016C28.8563 50.8415 30.1598 51.866 30.9566 54.4104V54.4047Z" fill="black"/>
<path d="M27.7179 20.5313C27.8317 20.6508 27.8829 20.6793 27.8886 20.7191C28.1884 22.4268 29.2244 23.2806 30.9965 23.2806C38.2482 23.2806 45.4999 23.2521 52.7515 23.3147C54.038 23.3261 54.351 22.9049 54.3396 21.6925C54.2827 16.4387 54.2941 11.1849 54.3453 5.93117C54.3567 4.82691 54.0436 4.46262 52.9052 4.46831C45.0843 4.51385 37.2635 4.51385 29.4426 4.4797C28.3326 4.4797 27.9114 4.80984 27.9854 5.94256C28.0708 7.30865 28.0139 8.68613 28.0195 10.0579C28.0252 12.1526 27.9968 12.1867 25.737 12.7616C25.6858 12.4941 25.6004 12.2323 25.5947 11.9648C25.5777 9.26672 25.589 6.56868 25.5663 3.87065C25.5549 2.58424 26.1469 1.94104 27.4503 1.94104C36.5975 1.94673 45.7446 1.95242 54.8975 1.94104C56.2806 1.94104 56.8726 2.66393 56.8726 3.97311C56.8783 10.5531 56.9011 17.1275 56.8783 23.7075C56.8783 25.2614 56.4172 25.6314 54.7438 25.6314C45.7389 25.6371 36.7341 25.6314 27.7236 25.6314C26.8641 25.6314 25.8338 25.7282 25.7143 24.5727C25.5947 23.3887 24.9914 21.9828 26.5396 21.1631C26.9438 20.9468 27.3422 20.7305 27.7179 20.5256V20.5313Z" fill="black"/>
<path d="M15.2466 42.9465C15.4287 44.6883 15.6279 46.2024 15.7019 47.7165C15.719 48.0637 15.3832 48.5532 15.0644 48.7695C13.8805 49.5721 12.6567 50.3291 11.3987 51.0065C10.784 51.3423 10.0668 51.6269 9.37805 51.6668C8.21118 51.7351 6.70279 51.9969 5.96851 51.3993C5.37654 50.9211 5.72944 49.2989 5.64406 48.1832C5.6156 47.836 5.53022 47.4888 5.10901 47.0562C4.94963 47.3693 4.7561 47.671 4.64795 48.0011C4.57965 48.2174 4.63088 48.4678 4.63088 48.7069C4.60242 52.1165 4.58534 52.1278 0.953807 51.5302C0.845658 49.464 0.583823 47.3522 1.5344 45.36C2.18898 43.9939 3.34447 43.0376 4.84718 42.9921C8.38764 42.8839 11.9338 42.9579 15.2409 42.9579L15.2466 42.9465Z" fill="black"/>
<path d="M57.1401 51.7009C57.0434 50.0901 56.958 48.6158 56.8726 47.1416C56.6392 47.1416 56.4002 47.1473 56.1668 47.153C56.1269 48.0751 55.9789 49.0143 56.0757 49.9193C56.2351 51.3537 55.7513 51.8091 54.2827 51.7408C52.6662 51.6668 51.2431 51.6895 49.9909 50.2608C49.194 49.3558 47.7425 49.02 46.6553 48.4678C46.7407 46.7545 46.8318 44.9558 46.9343 42.9067C47.9531 42.9067 49.1599 42.9067 50.3666 42.9067C52.1197 42.9067 53.8672 42.901 55.6203 42.9124C58.5233 42.9352 60.2708 44.3468 60.709 47.1985C60.8969 48.3995 60.8343 49.6518 60.7603 50.8756C60.7432 51.1659 60.2252 51.6212 59.8951 51.6611C59.0185 51.7749 58.1192 51.7009 57.1401 51.7009Z" fill="black"/>
<path d="M35.1232 48.4793C34.0361 48.9916 32.8692 49.5722 31.6739 50.0901C31.4177 50.1983 31.025 50.1869 30.7688 50.0674C29.4995 49.4811 28.2586 48.8379 27.1259 48.2744C27.1999 46.6066 27.2796 44.8534 27.365 42.9865H35.1232V48.4736V48.4793Z" fill="black"/>
<path d="M25.3158 45.5023C25.2874 47.6539 23.483 49.4469 21.4054 49.3843C19.2822 49.316 17.6258 47.523 17.6771 45.3429C17.7226 43.2767 19.4758 41.5349 21.4964 41.5463C23.6025 41.5577 25.3443 43.3564 25.3158 45.4966V45.5023Z" fill="black"/>
<path d="M44.8054 45.5479C44.8168 47.6198 43.0238 49.4185 40.9348 49.4299C38.8629 49.4356 37.0073 47.6255 37.0073 45.5877C37.0073 43.5386 38.8345 41.7001 40.9007 41.6716C42.9498 41.6431 44.794 43.476 44.8054 45.5479Z" fill="black"/>
<path d="M51.0098 41.4723C48.9834 41.4325 47.2416 39.6395 47.2473 37.6074C47.2587 35.5241 49.1371 33.697 51.1862 33.771C53.2638 33.8507 54.9658 35.5981 54.9544 37.6359C54.9373 39.7306 53.1158 41.5065 51.0098 41.4666V41.4723Z" fill="black"/>
<path d="M28.0935 37.5221C28.1163 35.4103 29.767 33.7539 31.8674 33.7426C33.9621 33.7255 35.7494 35.5299 35.7152 37.6359C35.6868 39.6623 33.9165 41.4268 31.8958 41.4496C29.7955 41.4724 28.0708 39.6908 28.0935 37.5278V37.5221Z" fill="black"/>
<path d="M14.4383 37.6075C14.4098 39.5712 12.5428 41.4439 10.5962 41.4496C8.60393 41.4553 6.7654 39.6281 6.75401 37.6302C6.73694 35.5128 8.5527 33.7141 10.6531 33.7596C12.7079 33.8109 14.4668 35.5925 14.4383 37.6075Z" fill="black"/>
<path d="M18.696 3.71124C18.6675 5.69777 16.9713 7.394 15.0758 7.33708C13.1234 7.27447 11.541 5.601 11.5524 3.61447C11.5638 1.67348 13.2714 -0.034137 15.1726 1.53898e-05C17.1193 0.0341677 18.7244 1.72471 18.696 3.71124Z" fill="black"/>
<path d="M31.0876 12.2778C32.465 11.2134 33.8141 10.1035 35.2428 9.11304C35.5331 8.91382 36.1421 9.18135 36.6032 9.23258C36.5292 9.65379 36.6032 10.2515 36.3527 10.4734C35.1915 11.5094 33.9905 12.5226 32.6813 13.3536C32.3626 13.5585 31.5942 13.0576 31.0306 12.8812C31.0534 12.6763 31.0705 12.4771 31.0933 12.2721L31.0876 12.2778Z" fill="black"/>
</g>
<defs>
<clipPath id="clip0_421_1415">
<rect width="60" height="59.7154" fill="white" transform="translate(0.839966)"/>
</clipPath>
</defs>
</svg>
